<?xml version="1.0" encoding="UTF-8"?>
<svg width="15px" height="16px" viewBox="0 0 15 16" version="1.1" xmlns="http://www.w3.org/2000/svg" xmlns:xlink="http://www.w3.org/1999/xlink">
    <!-- Generator: Sketch 50.2 (55047) - http://www.bohemiancoding.com/sketch -->
    <title>discord</title>
    <desc>Created with Sketch.</desc>
    <defs></defs>
    <g id="Page-1" stroke="none" stroke-width="1" fill="none" fill-rule="evenodd">
        <g id="Desktop-HD" transform="translate(-1233.000000, -26.000000)" fill="#FFFFFF" fill-rule="nonzero">
            <g id="navbar">
                <g id="navigation" transform="translate(150.000000, 15.000000)">
                    <g id="social" transform="translate(1007.000000, 11.000000)">
                        <g id="discord" transform="translate(76.000000, 0.000000)">
                            <path d="M13.1059091,0 C14.0645455,0 14.8377273,0.758 14.8834091,1.65 L14.8834091,16 L13.0581818,14.4846667 L12.0559091,13.5926667 L10.9622727,12.6606667 L11.4190909,14.1306667 L1.84772727,14.1306667 C0.891818182,14.1306667 0.115909091,13.4206667 0.115909091,12.48 L0.115909091,1.65333333 C0.115909091,0.761333333 0.893181818,0.002 1.85113636,0.002 L13.1011364,0.002 L13.1059091,0 Z M8.93454545,3.78866667 L8.91409091,3.78866667 L8.77636364,3.922 C10.1897727,4.322 10.8736364,4.94666667 10.8736364,4.94666667 C9.96272727,4.50133333 9.14181818,4.27866667 8.32090909,4.18866667 C7.72772727,4.09866667 7.13454545,4.146 6.63340909,4.18866667 L6.49704545,4.18866667 C6.17659091,4.18866667 5.49477273,4.322 4.58113636,4.67866667 C4.26272727,4.814 4.08,4.90266667 4.08,4.90266667 C4.08,4.90266667 4.76318182,4.23466667 6.26863636,3.878 L6.17659091,3.788 C6.17659091,3.788 5.03659091,3.74533333 3.80590909,4.63466667 C3.80590909,4.63466667 2.57522727,6.73066667 2.57522727,9.31466667 C2.57522727,9.31466667 3.25704545,10.4746667 5.12727273,10.5186667 C5.12727273,10.5186667 5.4,10.1633333 5.67613636,9.85066667 C4.62613636,9.53866667 4.21704545,8.91466667 4.21704545,8.91466667 C4.21704545,8.91466667 4.30840909,8.95866667 4.44545455,9.048 L4.48636364,9.048 C4.50681818,9.048 4.51636364,9.058 4.52727273,9.068 L4.52727273,9.072 C4.53818182,9.08266667 4.54772727,9.092 4.56818182,9.092 C4.79318182,9.18266667 5.01818182,9.272 5.20227273,9.35866667 C5.52,9.49333333 5.92840909,9.62733333 6.42954545,9.716 C7.06363636,9.806 7.79045455,9.84933333 8.61818182,9.716 C9.02727273,9.626 9.43636364,9.538 9.84545455,9.35933333 C10.1113636,9.226 10.4386364,9.09266667 10.7979545,8.868 C10.7979545,8.868 10.3888636,9.492 9.29454545,9.804 C9.51954545,10.1146667 9.83659091,10.4706667 9.83659091,10.4706667 C11.7075,10.4306667 12.4343182,9.27066667 12.4752273,9.32 C12.4752273,6.74 11.2377273,4.64 11.2377273,4.64 C10.1229545,3.83066667 9.07977273,3.8 8.89568182,3.8 L8.93386364,3.78666667 L8.93454545,3.78866667 Z M9.04909091,6.73066667 C9.52840909,6.73066667 9.915,7.13066667 9.915,7.62066667 C9.915,8.114 9.52636364,8.514 9.04909091,8.514 C8.57181818,8.514 8.18318182,8.114 8.18318182,7.62466667 C8.18454545,7.13133333 8.57386364,6.73266667 9.04909091,6.73266667 L9.04909091,6.73066667 Z M5.95159091,6.73066667 C6.42886364,6.73066667 6.81477273,7.13066667 6.81477273,7.62066667 C6.81477273,8.114 6.42613636,8.514 5.94886364,8.514 C5.47159091,8.514 5.08295455,8.114 5.08295455,7.62466667 C5.08295455,7.13133333 5.47159091,6.73266667 5.94886364,6.73266667 L5.95159091,6.73066667 Z" id="Shape"></path>
                        </g>
                    </g>
                </g>
            </g>
        </g>
    </g>
</svg>